# Blender v2.78 (sub 0) OBJ File: 'World1.blend'
# www.blender.org
mtllib World1.mtl
o World1_Graphics
v 1.927618 -1.190063 1.361823
v 1.151085 -2.240336 0.797646
v 2.258346 -1.394467 -0.006813
v 2.519746 -0.025803 0.797649
v -2.284657 -1.190052 -0.006813
v -1.747754 -1.394467 1.294844
v -2.432087 -0.025803 0.797649
v -0.675700 -1.190063 -2.221333
v -1.747754 -1.394467 -1.308469
v -1.486370 -0.025803 -2.112950
v 1.927618 -1.190063 -1.375449
v 0.728164 -1.394471 -2.112936
v 1.574029 -0.025803 -2.112950
v -0.675700 -1.190063 2.207708
v 0.043829 -0.025803 2.596517
v -1.486370 -0.025803 2.099324
v -2.432087 -0.025803 -0.811274
v 2.519746 -0.025803 -0.811274
v 0.763358 1.138458 -2.221333
v -0.640505 1.342866 -2.112936
v 0.466755 2.188731 -1.308465
v 1.412477 2.188724 -0.006813
v 1.835413 1.342862 -1.308469
v -1.063426 2.188730 -0.811271
v -1.839959 1.138457 -1.375449
v -0.640505 1.342866 2.099311
v 0.043829 -0.025803 -2.610142
v 1.151085 -2.240336 -0.811271
v -0.379096 -2.240336 -1.308465
v -1.324818 -2.240329 -0.006813
v -0.379096 -2.240336 1.294840
v 0.728164 -1.394471 2.099311
v 1.574029 -0.025803 2.099324
v -1.839959 1.138457 1.361823
v -1.063426 2.188730 0.797646
v -2.170687 1.342861 -0.006813
v 2.372316 1.138447 -0.006813
v 0.466755 2.188731 1.294840
v 0.763358 1.138458 2.207708
v 1.835413 1.342862 1.294844
v 0.043829 -2.629132 -0.006813
v 0.043829 2.577527 -0.006813
vn 0.4089 0.6617 0.6284
vn 0.0385 0.6617 0.7488
vn 0.4911 0.7947 0.3568
vn 0.7240 0.6617 0.1947
vn -0.0247 0.3304 0.9435
vn 0.5746 0.3304 0.7488
vn 0.7947 0.1876 0.5773
vn 0.8897 0.3304 0.3151
vn 0.1024 -0.9435 0.3151
vn -0.2680 -0.9435 0.1947
vn -0.2680 -0.9435 -0.1947
vn 0.1024 -0.9435 -0.3151
vn 0.2680 0.9435 -0.1947
vn -0.1024 0.9435 -0.3151
vn -0.3313 0.9435 0.0000
vn -0.1024 0.9435 0.3151
vn 0.2680 0.9435 0.1947
vn 0.3313 -0.9435 -0.0000
vn 0.0247 -0.3304 0.9435
vn 0.8026 -0.1256 0.5831
vn -0.3066 -0.1256 -0.9435
vn -0.4713 0.6617 0.5831
vn -0.7002 0.6617 -0.2680
vn 0.7240 0.6617 -0.1947
vn -0.6071 0.7947 0.0000
vn -0.7002 0.6617 0.2680
vn -0.1876 0.7947 0.5773
vn 0.8897 0.3304 -0.3151
vn 0.7947 0.1876 -0.5773
vn -0.0247 0.3304 -0.9435
vn -0.3035 0.1876 -0.9342
vn -0.9050 0.3304 -0.2680
vn -0.9822 0.1876 0.0000
vn -0.9050 0.3304 0.2680
vn -0.5346 0.3304 0.7779
vn 0.3066 0.1256 -0.9435
vn 0.3035 -0.1876 -0.9342
vn -0.8026 0.1256 0.5831
vn 0.3066 0.1256 0.9435
vn 0.3035 -0.1876 0.9342
vn 0.5346 -0.3304 0.7779
vn 0.9921 0.1256 0.0000
vn -0.4089 -0.6617 0.6284
vn -0.0385 -0.6617 0.7488
vn 0.1876 -0.7947 0.5773
vn 0.4713 -0.6617 0.5831
vn 0.7002 -0.6617 0.2680
vn 0.9050 -0.3304 0.2680
vn -0.8897 -0.3304 0.3151
vn -0.5746 -0.3304 -0.7488
vn 0.5346 -0.3304 -0.7779
vn -0.3066 -0.1256 0.9435
vn -0.9921 -0.1256 -0.0000
vn 0.8026 -0.1256 -0.5831
vn 0.0385 0.6617 -0.7488
vn 0.4911 0.7947 -0.3568
vn 0.4089 0.6617 -0.6284
vn -0.1876 0.7947 -0.5773
vn -0.4713 0.6617 -0.5831
vn 0.5746 0.3304 -0.7488
vn -0.5346 0.3304 -0.7779
vn -0.3035 0.1876 0.9342
vn 0.0247 -0.3304 -0.9435
vn -0.8026 0.1256 -0.5831
vn -0.7947 -0.1876 -0.5773
vn -0.8897 -0.3304 -0.3151
vn -0.7947 -0.1876 0.5773
vn -0.5746 -0.3304 0.7488
vn 0.9822 -0.1876 -0.0000
vn 0.9050 -0.3304 -0.2680
vn 0.4713 -0.6617 -0.5831
vn 0.1876 -0.7947 -0.5773
vn -0.0385 -0.6617 -0.7488
vn -0.4089 -0.6617 -0.6284
vn -0.4911 -0.7947 -0.3568
vn -0.7240 -0.6617 -0.1947
vn -0.7240 -0.6617 0.1947
vn -0.4911 -0.7947 0.3568
vn 0.7002 -0.6617 -0.2680
vn 0.6071 -0.7947 -0.0000
usemtl Desert
s 1
f 39//1 40//1 38//1
f 26//2 39//2 38//2
f 38//3 40//3 22//3
f 40//4 37//4 22//4
f 15//5 39//5 26//5
f 33//6 40//6 39//6
f 33//7 4//7 40//7
f 4//8 37//8 40//8
usemtl Ice
f 41//9 2//9 31//9
f 41//10 31//10 30//10
f 41//11 30//11 29//11
f 41//12 29//12 28//12
f 22//13 21//13 42//13
f 21//14 24//14 42//14
f 24//15 35//15 42//15
f 35//16 38//16 42//16
f 38//17 22//17 42//17
f 2//18 41//18 28//18
usemtl Land
f 14//19 32//19 15//19
f 1//20 4//20 33//20
f 8//21 10//21 27//21
f 34//22 26//22 35//22
f 25//23 36//23 24//23
f 37//24 23//24 22//24
f 24//25 36//25 35//25
f 36//26 34//26 35//26
f 35//27 26//27 38//27
f 18//28 23//28 37//28
f 18//29 13//29 23//29
f 27//30 20//30 19//30
f 27//31 10//31 20//31
f 17//32 36//32 25//32
f 17//33 7//33 36//33
f 7//34 34//34 36//34
f 16//35 26//35 34//35
f 13//36 27//36 19//36
f 13//37 12//37 27//37
f 7//38 16//38 34//38
f 15//39 33//39 39//39
f 15//40 32//40 33//40
f 32//41 1//41 33//41
f 4//42 18//42 37//42
f 31//43 14//43 6//43
f 31//44 32//44 14//44
f 31//45 2//45 32//45
f 2//46 1//46 32//46
usemtl Water
f 1//47 2//47 3//47
f 1//48 3//48 4//48
f 5//49 6//49 7//49
f 8//50 9//50 10//50
f 11//51 12//51 13//51
f 14//52 15//52 16//52
f 5//53 7//53 17//53
f 11//54 13//54 18//54
f 19//55 20//55 21//55
f 22//56 23//56 21//56
f 23//57 19//57 21//57
f 21//58 20//58 24//58
f 20//59 25//59 24//59
f 13//60 19//60 23//60
f 10//61 25//61 20//61
f 16//62 15//62 26//62
f 12//63 8//63 27//63
f 10//64 17//64 25//64
f 10//65 9//65 17//65
f 9//66 5//66 17//66
f 7//67 6//67 16//67
f 6//68 14//68 16//68
f 4//69 3//69 18//69
f 3//70 11//70 18//70
f 28//71 12//71 11//71
f 28//72 29//72 12//72
f 29//73 8//73 12//73
f 29//74 9//74 8//74
f 29//75 30//75 9//75
f 30//76 5//76 9//76
f 30//77 6//77 5//77
f 30//78 31//78 6//78
f 3//79 28//79 11//79
f 3//80 2//80 28//80
